<?xml version="1.0" encoding="utf-8"?>
<!-- Generator: Adobe Illustrator 27.4.0, SVG Export Plug-In . SVG Version: 6.00 Build 0)  -->
<svg version="1.1" id="Capa_1" xmlns="http://www.w3.org/2000/svg" xmlns:xlink="http://www.w3.org/1999/xlink" x="0px" y="0px"
	 viewBox="0 0 120.4 114" style="enable-background:new 0 0 120.4 114;" xml:space="preserve">
<style type="text/css">
	.st0{fill:#442316;}
	.st1{fill:#AD824C;}
	.st2{fill:#24555A;}
	.st3{fill:#C4364C;}
</style>
<g>
	<g>
		<path class="st0" d="M100.4,41.4c0.6-0.7,1.1-1.5,1.4-2.3c0.3-0.9,0.4-1.8,0.3-2.7c-0.1-0.9-0.3-1.8-0.7-2.6
			c-0.4-0.8-1-1.6-1.7-2.3c-0.7-0.7-1.5-1.2-2.4-1.5c-0.9-0.3-1.7-0.5-2.6-0.5c-0.9,0-1.7,0.2-2.6,0.5c-0.9,0.4-1.6,0.9-2.3,1.6
			L75.2,47.6c-0.5,0.5-1,0.9-1.6,1.1c-0.6,0.3-1.2,0.4-1.9,0.4c-0.6,0-1.3-0.1-1.9-0.3s-1.2-0.6-1.7-1c-1-0.9-1.5-2.1-1.6-3.4
			c-0.1-1.3,0.4-2.5,1.3-3.5l14.5-15.7c0.7-0.7,1.1-1.5,1.4-2.4c0.3-0.9,0.4-1.8,0.3-2.7c-0.1-0.9-0.3-1.8-0.7-2.7
			c-0.4-0.9-1-1.6-1.7-2.3c-0.7-0.7-1.5-1.2-2.3-1.5c-0.8-0.3-1.7-0.5-2.6-0.5c-0.9,0-1.8,0.2-2.6,0.5c-0.9,0.3-1.6,0.9-2.3,1.6
			L57.3,31c-0.5,0.5-1,0.9-1.6,1.1c-0.6,0.3-1.2,0.4-1.9,0.4c-0.6,0-1.3-0.1-1.9-0.3c-0.6-0.2-1.2-0.6-1.7-1c-0.5-0.5-0.9-1-1.1-1.6
			c-0.3-0.6-0.4-1.2-0.4-1.8c0-0.6,0.1-1.2,0.3-1.8c0.2-0.6,0.5-1.2,1-1.7L64.5,8.5c0,0,0.1-0.1,0.2-0.1c0.1,0,0.1-0.1,0.2-0.1
			c1.6-1.6,3.4-2.8,5.4-3.7c2-0.8,4.1-1.3,6.2-1.4c2.1-0.1,4.2,0.3,6.3,1c2.1,0.7,3.9,1.9,5.7,3.5c1.8,1.6,3.1,3.5,4,5.6
			c0.9,2.1,1.5,4.3,1.5,6.5c2.2-0.1,4.4,0.2,6.6,1c2.2,0.7,4.1,1.9,5.9,3.5c1.7,1.6,3,3.4,3.9,5.4c0.9,2.1,1.4,4.2,1.6,6.3
			c0.1,2.2-0.2,4.3-0.9,6.4c-0.7,2.1-1.8,4-3.4,5.7L93.1,64c-0.5,0.5-1,0.9-1.6,1.1c-0.6,0.3-1.2,0.4-1.9,0.4
			c-0.6,0-1.3-0.1-1.9-0.3c-0.6-0.2-1.2-0.6-1.7-1c-1-0.9-1.5-2.1-1.6-3.4c-0.1-1.3,0.4-2.5,1.3-3.5L100.4,41.4z"/>
	</g>
	<g>
		<path class="st1" d="M32.4,60c1,0.9,1.5,2.1,1.6,3.4c0.1,1.3-0.4,2.5-1.3,3.5c-0.5,0.5-1,0.9-1.6,1.2c-0.6,0.3-1.2,0.4-1.9,0.5
			c-0.6,0.1-1.3,0-1.9-0.2c-0.6-0.2-1.2-0.5-1.7-1L9.7,52.7c-1.7-1.5-3-3.3-3.9-5.4c-0.9-2-1.4-4.1-1.4-6.3c-0.1-2.2,0.3-4.3,1-6.4
			c0.7-2.1,1.9-4,3.4-5.7c1.6-1.8,3.5-3.1,5.6-4c2.1-0.9,4.3-1.4,6.5-1.5c-0.1-2.2,0.2-4.5,1-6.6c0.8-2.2,1.9-4.2,3.6-5.9
			c1.6-1.7,3.4-3,5.3-3.9c2-0.9,4.1-1.4,6.2-1.5c2.1-0.1,4.2,0.2,6.3,0.8c2.1,0.7,4,1.7,5.7,3.2c0,0,0.1,0.1,0.2,0.1
			c0.1,0,0.1,0.1,0.2,0.1l15.8,14.5c0.5,0.5,0.9,1,1.1,1.6c0.3,0.6,0.4,1.2,0.4,1.8c0,0.6-0.1,1.2-0.3,1.8c-0.2,0.6-0.5,1.2-1,1.6
			c-0.5,0.5-1,0.9-1.6,1.2c-0.6,0.3-1.2,0.5-1.9,0.5c-0.6,0-1.3,0-1.9-0.2c-0.6-0.2-1.2-0.5-1.7-1l-16-14.6
			c-0.7-0.6-1.6-1.1-2.4-1.4c-0.9-0.3-1.8-0.4-2.6-0.3c-0.9,0.1-1.7,0.3-2.5,0.7c-0.8,0.4-1.6,0.9-2.2,1.7c-0.7,0.7-1.2,1.5-1.5,2.4
			c-0.3,0.9-0.5,1.8-0.5,2.7c0,0.9,0.2,1.8,0.6,2.6c0.4,0.9,0.9,1.6,1.6,2.3L48.8,42c1,0.9,1.6,2.1,1.6,3.4c0.1,1.3-0.4,2.5-1.3,3.5
			c-0.5,0.5-1,0.9-1.6,1.2c-0.6,0.3-1.2,0.4-1.9,0.5c-0.6,0.1-1.3,0-1.9-0.2c-0.6-0.2-1.2-0.5-1.7-1L26.1,34.8
			c-0.7-0.6-1.6-1.1-2.4-1.4c-0.9-0.3-1.8-0.4-2.6-0.3c-0.9,0.1-1.7,0.3-2.5,0.7c-0.8,0.4-1.6,1-2.2,1.7c-0.7,0.7-1.2,1.5-1.5,2.4
			c-0.3,0.9-0.5,1.8-0.5,2.7c0,0.9,0.2,1.8,0.6,2.6c0.3,0.8,0.9,1.6,1.6,2.2L32.4,60z"/>
	</g>
	<g>
		<path class="st2" d="M86.1,54.9c-1-0.9-1.6-2.1-1.6-3.4c-0.1-1.3,0.4-2.5,1.3-3.5c0.5-0.5,1-0.9,1.6-1.2c0.6-0.3,1.2-0.4,1.9-0.5
			c0.6-0.1,1.3,0,1.9,0.2c0.6,0.2,1.2,0.5,1.7,1l15.9,14.6c1.7,1.5,3,3.3,3.9,5.4c0.9,2,1.4,4.1,1.4,6.3c0.1,2.2-0.3,4.3-1,6.4
			c-0.7,2.1-1.9,4-3.4,5.7c-1.6,1.8-3.5,3.1-5.6,4c-2.1,0.9-4.3,1.4-6.5,1.5c0.1,2.2-0.2,4.5-1,6.6s-1.9,4.2-3.6,5.9
			c-1.6,1.7-3.4,3-5.3,3.9c-2,0.9-4.1,1.4-6.2,1.5c-2.1,0.1-4.2-0.2-6.3-0.8c-2.1-0.7-4-1.7-5.7-3.2c0,0-0.1-0.1-0.2-0.1
			c-0.1,0-0.1-0.1-0.2-0.1L53.2,90.8c-0.5-0.5-0.9-1-1.1-1.6c-0.3-0.6-0.4-1.2-0.4-1.8c0-0.6,0.1-1.2,0.3-1.8c0.2-0.6,0.5-1.2,1-1.6
			c0.5-0.5,1-0.9,1.6-1.2c0.6-0.3,1.2-0.5,1.9-0.5c0.6,0,1.2,0,1.9,0.2c0.6,0.2,1.2,0.5,1.7,1l16,14.6c0.7,0.6,1.6,1.1,2.4,1.4
			c0.9,0.3,1.8,0.4,2.6,0.3c0.9-0.1,1.7-0.3,2.5-0.7c0.8-0.4,1.6-0.9,2.2-1.7c0.7-0.7,1.2-1.5,1.5-2.4c0.3-0.9,0.5-1.8,0.5-2.7
			c0-0.9-0.2-1.8-0.6-2.6c-0.4-0.9-0.9-1.6-1.6-2.3L69.7,72.9c-1-0.9-1.5-2.1-1.6-3.4C68,68.2,68.5,67,69.4,66
			c0.5-0.5,1-0.9,1.6-1.2c0.6-0.3,1.2-0.4,1.9-0.5c0.6-0.1,1.3,0,1.9,0.2c0.6,0.2,1.2,0.5,1.7,1l15.9,14.6c0.7,0.6,1.6,1.1,2.4,1.4
			c0.9,0.3,1.8,0.4,2.6,0.3c0.9-0.1,1.7-0.3,2.5-0.7c0.8-0.4,1.6-1,2.2-1.7c0.7-0.7,1.2-1.5,1.5-2.4c0.3-0.9,0.5-1.8,0.5-2.7
			c0-0.9-0.2-1.8-0.6-2.6c-0.3-0.8-0.9-1.6-1.6-2.2L86.1,54.9z"/>
	</g>
	<g>
		<path class="st3" d="M17.7,73c-0.6,0.7-1.1,1.5-1.4,2.3C16,76.2,15.9,77.1,16,78c0.1,0.9,0.3,1.8,0.7,2.6c0.4,0.8,1,1.6,1.7,2.3
			c0.7,0.7,1.5,1.2,2.4,1.5c0.9,0.3,1.7,0.5,2.6,0.5c0.9,0,1.7-0.2,2.6-0.5c0.9-0.4,1.6-0.9,2.3-1.6l14.6-15.9
			c0.5-0.5,1-0.9,1.6-1.1c0.6-0.3,1.2-0.4,1.9-0.4c0.6,0,1.3,0.1,1.9,0.3c0.6,0.2,1.2,0.6,1.7,1c1,0.9,1.5,2.1,1.6,3.4
			c0.1,1.3-0.4,2.5-1.3,3.5L35.6,89.3c-0.7,0.7-1.1,1.5-1.4,2.4c-0.3,0.9-0.4,1.8-0.3,2.7c0.1,0.9,0.3,1.8,0.7,2.7
			c0.4,0.9,1,1.6,1.7,2.3c0.7,0.7,1.5,1.2,2.3,1.5c0.8,0.3,1.7,0.5,2.6,0.5c0.9,0,1.8-0.2,2.6-0.5c0.9-0.3,1.6-0.9,2.3-1.6
			l14.7-15.9c0.5-0.5,1-0.9,1.6-1.1c0.6-0.3,1.2-0.4,1.8-0.4c0.6,0,1.3,0.1,1.9,0.3c0.6,0.2,1.2,0.6,1.7,1c0.5,0.5,0.9,1,1.1,1.6
			c0.3,0.6,0.4,1.2,0.4,1.8c0,0.6-0.1,1.2-0.3,1.8c-0.2,0.6-0.5,1.2-1,1.7l-14.6,15.8c0,0-0.1,0.1-0.2,0.1c-0.1,0-0.1,0.1-0.2,0.1
			c-1.6,1.6-3.4,2.8-5.4,3.7c-2,0.8-4.1,1.3-6.2,1.4c-2.1,0.1-4.2-0.3-6.3-1c-2.1-0.7-3.9-1.9-5.7-3.5c-1.8-1.6-3.1-3.5-4-5.6
			c-0.9-2.1-1.5-4.3-1.5-6.5c-2.2,0.1-4.4-0.2-6.6-1c-2.2-0.7-4.1-1.9-5.9-3.5c-1.7-1.6-3-3.4-3.9-5.4c-0.9-2.1-1.4-4.2-1.6-6.3
			c-0.1-2.2,0.2-4.3,0.9-6.4c0.7-2.1,1.8-4,3.4-5.7L25,50.4c0.5-0.5,1-0.9,1.6-1.1c0.6-0.3,1.2-0.4,1.9-0.4c0.6,0,1.3,0.1,1.9,0.3
			c0.6,0.2,1.2,0.6,1.7,1c1,0.9,1.5,2.1,1.6,3.4c0.1,1.3-0.4,2.5-1.3,3.5L17.7,73z"/>
	</g>
</g>
</svg>
