<?xml version="1.0" encoding="utf-8"?>
<!-- Generator: Adobe Illustrator 27.4.0, SVG Export Plug-In . SVG Version: 6.00 Build 0)  -->
<svg version="1.1" id="Capa_1" xmlns="http://www.w3.org/2000/svg" xmlns:xlink="http://www.w3.org/1999/xlink" x="0px" y="0px"
	 viewBox="0 0 179.6 114" style="enable-background:new 0 0 179.6 114;" xml:space="preserve">
<style type="text/css">
	.st0{fill:#1D1D1B;}
	.st1{fill:#AD824C;}
	.st2{fill:#442316;}
	.st3{fill:#24555A;}
	.st4{fill:#C4364C;}
</style>
<g>
	<g>
		<path class="st0" d="M11,75.3h13.9v-8.8c0-0.3,0.1-0.6,0.2-0.9c0.1-0.3,0.3-0.5,0.5-0.7c0.2-0.2,0.4-0.3,0.7-0.5
			c0.3-0.1,0.6-0.2,0.9-0.2c0.3,0,0.6,0.1,0.9,0.2c0.3,0.1,0.5,0.3,0.7,0.5c0.2,0.2,0.4,0.4,0.5,0.7c0.1,0.3,0.2,0.6,0.2,0.9v22
			c0,0.3-0.1,0.6-0.2,0.9s-0.3,0.5-0.5,0.7c-0.2,0.2-0.4,0.3-0.7,0.5c-0.3,0.1-0.6,0.2-0.9,0.2c-0.3,0-0.6-0.1-0.9-0.2
			c-0.3-0.1-0.5-0.3-0.7-0.5c-0.2-0.2-0.4-0.4-0.5-0.7c-0.1-0.3-0.2-0.6-0.2-0.9v-8.7H11v8.7c0,0.3-0.1,0.6-0.2,0.9
			c-0.1,0.3-0.3,0.5-0.5,0.7c-0.2,0.2-0.4,0.3-0.7,0.5c-0.3,0.1-0.6,0.2-0.9,0.2c-0.3,0-0.6-0.1-0.9-0.2c-0.3-0.1-0.5-0.3-0.7-0.5
			c-0.2-0.2-0.4-0.4-0.5-0.7s-0.2-0.6-0.2-0.9v-22c0-0.3,0.1-0.6,0.2-0.9C6.8,65.4,7,65.2,7.2,65s0.4-0.3,0.7-0.5
			c0.3-0.1,0.6-0.2,0.9-0.2c0.3,0,0.6,0.1,0.9,0.2c0.3,0.1,0.5,0.3,0.7,0.5c0.2,0.2,0.4,0.4,0.5,0.7c0.1,0.3,0.2,0.6,0.2,0.9V75.3z"
			/>
		<path class="st0" d="M36.5,90.8c-0.6-0.1-1.1-0.3-1.5-0.7c-0.4-0.4-0.6-0.9-0.6-1.5V66.6c0-0.3,0.1-0.6,0.2-0.9
			c0.1-0.3,0.3-0.5,0.5-0.7c0.2-0.2,0.4-0.4,0.7-0.5c0.3-0.1,0.6-0.2,0.9-0.2h14.4c0.3,0,0.6,0.1,0.9,0.2c0.3,0.1,0.5,0.3,0.7,0.5
			c0.2,0.2,0.3,0.4,0.5,0.7c0.1,0.3,0.2,0.6,0.2,0.9c0,0.3-0.1,0.6-0.2,0.9c-0.1,0.3-0.3,0.5-0.5,0.7c-0.2,0.2-0.4,0.4-0.7,0.5
			c-0.3,0.1-0.6,0.2-0.9,0.2H38.9V75h9.6c0.3,0,0.6,0.1,0.9,0.2c0.3,0.1,0.5,0.3,0.7,0.5c0.2,0.2,0.4,0.4,0.5,0.7
			c0.1,0.3,0.2,0.6,0.2,0.9c0,0.3-0.1,0.6-0.2,0.9c-0.1,0.3-0.3,0.5-0.5,0.7c-0.2,0.2-0.4,0.4-0.7,0.5c-0.3,0.1-0.6,0.2-0.9,0.2
			h-9.6v6.9h12.2c0.3,0,0.6,0.1,0.9,0.2c0.3,0.1,0.5,0.3,0.7,0.5c0.2,0.2,0.3,0.4,0.5,0.7c0.1,0.3,0.2,0.6,0.2,0.9
			c0,0.6-0.2,1.2-0.6,1.6c-0.4,0.4-0.9,0.6-1.6,0.6H36.5z"/>
		<path class="st0" d="M61.5,86.3l11.4,0c0.3,0,0.6,0.1,0.9,0.2c0.3,0.1,0.5,0.3,0.7,0.5c0.2,0.2,0.4,0.4,0.5,0.7
			c0.1,0.3,0.2,0.6,0.2,0.9c0,0.6-0.2,1.2-0.6,1.6c-0.4,0.4-1,0.6-1.6,0.6H59.3c-0.1,0-0.2,0-0.2,0s-0.1,0-0.2,0c-0.1,0-0.1,0-0.2,0
			c-0.5-0.1-0.9-0.4-1.2-0.8c-0.3-0.4-0.5-0.8-0.5-1.4v-22c0-0.3,0.1-0.6,0.2-0.9c0.1-0.3,0.3-0.5,0.5-0.7c0.2-0.2,0.4-0.3,0.7-0.5
			c0.3-0.1,0.6-0.2,0.9-0.2c0.3,0,0.6,0.1,0.9,0.2c0.3,0.1,0.5,0.3,0.7,0.5c0.2,0.2,0.4,0.4,0.5,0.7c0.1,0.3,0.2,0.6,0.2,0.9V86.3z"
			/>
		<path class="st0" d="M93.8,85.7H82l-1.5,3.7c-0.2,0.4-0.5,0.8-0.8,1s-0.8,0.3-1.2,0.3c-0.3,0-0.6-0.1-1-0.2
			c-0.3-0.1-0.6-0.3-0.7-0.5c-0.2-0.2-0.3-0.4-0.4-0.7c-0.1-0.3-0.1-0.5-0.1-0.8c0-0.3,0.1-0.6,0.2-0.9l9.4-21.9
			c0.2-0.4,0.5-0.8,0.8-1c0.4-0.2,0.8-0.4,1.2-0.4c0.4,0,0.8,0.1,1.2,0.4c0.4,0.2,0.6,0.6,0.8,1l9.5,21.9c0.2,0.6,0.3,1.1,0.1,1.7
			c-0.2,0.6-0.5,1-1.1,1.2c-0.3,0.1-0.6,0.2-0.9,0.2c-0.4,0-0.8-0.1-1.2-0.4c-0.4-0.2-0.7-0.6-0.8-1L93.8,85.7z M83.8,81.2h8.1
			l-4-9.7L83.8,81.2z"/>
		<path class="st0" d="M104.5,90.8c-0.3,0-0.6-0.1-0.9-0.2c-0.3-0.1-0.5-0.3-0.7-0.5c-0.2-0.2-0.4-0.4-0.5-0.7
			c-0.1-0.3-0.2-0.6-0.2-0.9v-22c0-0.3,0.1-0.6,0.2-0.9c0.1-0.3,0.3-0.5,0.5-0.7c0.2-0.2,0.4-0.4,0.7-0.5c0.3-0.1,0.6-0.2,0.9-0.2
			h7.2c1.2,0,2.4,0.2,3.5,0.5c1.1,0.3,2.2,0.8,3.2,1.3c1,0.6,1.9,1.3,2.7,2.1c0.8,0.8,1.5,1.7,2.1,2.7s1,2,1.4,3.2
			c0.3,1.1,0.5,2.3,0.5,3.5c0,1.8-0.4,3.5-1.1,5.1c-0.7,1.6-1.7,3-2.9,4.2c-1.2,1.2-2.6,2.1-4.3,2.8c-1.6,0.7-3.3,1-5.2,1H104.5
			L104.5,90.8z M106.7,68.8v17.5h5.1c1.2,0,2.4-0.2,3.4-0.7c1.1-0.5,2-1.1,2.8-1.9c0.8-0.8,1.4-1.7,1.9-2.8c0.5-1,0.7-2.1,0.7-3.3
			c0-1.2-0.2-2.3-0.7-3.3c-0.5-1.1-1.1-2-1.9-2.8c-0.8-0.8-1.7-1.5-2.8-1.9c-1.1-0.5-2.2-0.7-3.4-0.7H106.7z"/>
		<path class="st0" d="M140.8,64.2c1.9,0,3.6,0.4,5.2,1.1c1.6,0.7,3.1,1.7,4.3,2.9c1.2,1.2,2.2,2.6,2.9,4.3c0.7,1.6,1.1,3.4,1.1,5.2
			c0,1.2-0.2,2.4-0.5,3.6c-0.3,1.1-0.8,2.2-1.4,3.2c-0.6,1-1.3,1.9-2.1,2.7c-0.8,0.8-1.7,1.5-2.7,2.1c-1,0.6-2.1,1-3.2,1.4
			c-1.1,0.3-2.3,0.5-3.6,0.5c-1.9,0-3.6-0.4-5.2-1.1c-1.6-0.7-3-1.7-4.2-2.9s-2.2-2.6-2.8-4.3c-0.7-1.6-1-3.4-1-5.2
			c0-1.2,0.2-2.4,0.5-3.6c0.3-1.1,0.8-2.2,1.3-3.2c0.6-1,1.3-1.9,2.1-2.7c0.8-0.8,1.7-1.5,2.7-2.1s2.1-1,3.2-1.4
			C138.4,64.3,139.6,64.2,140.8,64.2z M140.8,68.6c-1.2,0-2.4,0.2-3.5,0.7c-1.1,0.5-2,1.1-2.8,1.9c-0.8,0.8-1.4,1.8-1.9,2.8
			c-0.5,1.1-0.7,2.2-0.7,3.5c0,1.3,0.2,2.4,0.7,3.5c0.5,1.1,1.1,2,1.9,2.8c0.8,0.8,1.7,1.4,2.8,1.9c1.1,0.5,2.2,0.7,3.5,0.7
			c1.2,0,2.4-0.2,3.5-0.7s2-1.1,2.8-1.9c0.8-0.8,1.4-1.8,1.9-2.8c0.5-1.1,0.7-2.3,0.7-3.5c0-1.2-0.2-2.4-0.7-3.5
			c-0.5-1.1-1.1-2-1.9-2.8c-0.8-0.8-1.8-1.5-2.8-1.9C143.2,68.9,142.1,68.6,140.8,68.6z"/>
		<path class="st0" d="M166,79.7c-1.3-0.2-2.5-0.6-3.6-1c-1.1-0.4-2-0.9-2.8-1.6c-0.8-0.6-1.4-1.4-1.9-2.2c-0.4-0.9-0.7-1.9-0.7-3
			c0-1.2,0.2-2.2,0.7-3.2c0.5-0.9,1.1-1.8,1.9-2.5c0.8-0.7,1.7-1.2,2.8-1.6c1.1-0.4,2.2-0.6,3.3-0.6c0.8,0,1.6,0.1,2.4,0.2
			s1.5,0.4,2.2,0.7c0.7,0.3,1.3,0.7,1.9,1.2c0.6,0.5,1.1,1,1.4,1.7c0.1,0.2,0.2,0.4,0.2,0.6c0,0.2,0,0.4,0,0.6
			c0,0.2-0.1,0.4-0.2,0.6c-0.1,0.2-0.2,0.3-0.4,0.5c-0.4,0.4-0.9,0.6-1.5,0.6c-0.2,0-0.4,0-0.7-0.1c-0.2-0.1-0.4-0.2-0.6-0.3
			c-0.4-0.3-0.7-0.6-1.1-0.8c-0.3-0.2-0.7-0.4-1-0.6c-0.4-0.2-0.7-0.3-1.2-0.3c-0.4-0.1-0.9-0.1-1.5-0.1c-0.6,0-1.2,0.1-1.7,0.2
			c-0.5,0.2-1,0.4-1.4,0.7c-0.4,0.3-0.7,0.6-0.9,1c-0.2,0.4-0.3,0.8-0.3,1.3c0,0.6,0.2,1.1,0.5,1.4c0.3,0.4,0.7,0.7,1.3,0.9
			c0.5,0.3,1.2,0.5,1.9,0.6c0.7,0.2,1.5,0.3,2.3,0.5c1,0.2,1.9,0.6,2.8,0.9c0.9,0.4,1.7,0.8,2.4,1.4c0.7,0.6,1.3,1.3,1.7,2.1
			c0.4,0.8,0.7,1.8,0.7,3s-0.2,2.2-0.7,3.2c-0.5,1-1.1,1.9-2,2.6c-0.8,0.7-1.8,1.3-3,1.7c-1.1,0.4-2.4,0.6-3.7,0.6c-1,0-2-0.1-3-0.4
			c-0.9-0.3-1.8-0.6-2.6-1.1c-0.8-0.5-1.5-1-2.1-1.6c-0.6-0.6-1.1-1.3-1.4-2c-0.2-0.4-0.3-0.7-0.3-1c0-0.3,0-0.6,0.1-0.9
			c0.1-0.3,0.2-0.5,0.4-0.7c0.2-0.2,0.4-0.4,0.6-0.5c0.4-0.2,0.7-0.3,1-0.3c0.7,0,1.4,0.4,2.1,1.3c0.6,0.8,1.3,1.5,2.2,1.9
			s1.9,0.7,3.1,0.7c0.6,0,1.1-0.1,1.7-0.2s1.1-0.4,1.5-0.7c0.4-0.3,0.8-0.7,1.1-1.1c0.3-0.4,0.4-0.9,0.4-1.5c0-0.6-0.1-1.1-0.4-1.5
			c-0.3-0.4-0.6-0.7-1.1-0.9c-0.4-0.2-0.9-0.4-1.5-0.6C167.1,80,166.6,79.9,166,79.7z"/>
	</g>
	<path class="st1" d="M11,53.8c0,0.9-0.3,1.6-0.9,2.3C9.5,56.7,8.7,57,7.8,57c-0.4,0-0.9-0.1-1.3-0.3c-0.4-0.2-0.8-0.4-1.1-0.7
		c-0.3-0.3-0.6-0.6-0.7-1c-0.2-0.4-0.3-0.8-0.3-1.2V39.7c0-1.5,0.3-2.9,0.9-4.2C6,34.2,6.8,33,7.8,32c1-1,2.2-1.8,3.5-2.3
		c1.3-0.6,2.8-0.9,4.3-0.9c1.6,0,3,0.3,4.4,0.9s2.6,1.4,3.6,2.5c1-1,2.2-1.9,3.6-2.5s2.9-0.9,4.4-0.9c1.5,0,2.9,0.3,4.2,0.8
		c1.3,0.6,2.5,1.3,3.5,2.3s1.8,2.1,2.4,3.4c0.6,1.3,0.9,2.7,1,4.2c0,0,0,0.1,0,0.1c0,0.1,0,0.1,0,0.1v14c0,0.4-0.1,0.9-0.3,1.2
		c-0.2,0.4-0.4,0.7-0.7,1c-0.3,0.3-0.6,0.5-1,0.7C40.4,56.9,40,57,39.6,57c-0.4,0-0.9-0.1-1.3-0.3c-0.4-0.2-0.8-0.4-1.1-0.7
		c-0.3-0.3-0.5-0.6-0.7-1c-0.2-0.4-0.3-0.8-0.3-1.2V39.7c0-0.6-0.2-1.2-0.4-1.8c-0.3-0.5-0.6-1-1-1.4c-0.4-0.4-0.9-0.7-1.5-0.9
		s-1.1-0.3-1.8-0.3c-0.6,0-1.2,0.1-1.8,0.4c-0.6,0.2-1.1,0.6-1.5,1c-0.4,0.4-0.8,0.9-1,1.4s-0.4,1.1-0.4,1.8v14
		c0,0.9-0.3,1.6-0.9,2.3c-0.6,0.6-1.4,0.9-2.3,0.9c-0.4,0-0.9-0.1-1.3-0.3c-0.4-0.2-0.8-0.4-1.1-0.7c-0.3-0.3-0.6-0.6-0.7-1
		c-0.2-0.4-0.3-0.8-0.3-1.2V39.7c0-0.6-0.2-1.2-0.4-1.8c-0.2-0.5-0.6-1-1-1.4c-0.4-0.4-0.9-0.7-1.5-0.9c-0.6-0.2-1.2-0.3-1.8-0.3
		c-0.6,0-1.2,0.1-1.8,0.3c-0.6,0.2-1.1,0.5-1.5,1c-0.4,0.4-0.8,0.9-1,1.4c-0.2,0.5-0.4,1.1-0.4,1.7V53.8z"/>
	<path class="st2" d="M54.3,53.8c0,0.9-0.3,1.6-0.9,2.3C52.8,56.7,52,57,51.1,57c-0.4,0-0.9-0.1-1.3-0.3c-0.4-0.2-0.8-0.4-1.1-0.7
		c-0.3-0.3-0.6-0.6-0.7-1c-0.2-0.4-0.3-0.8-0.3-1.2V39.7c0-1.5,0.3-2.9,0.9-4.2c0.6-1.3,1.4-2.5,2.4-3.5c1-1,2.2-1.8,3.5-2.3
		c1.3-0.6,2.8-0.9,4.3-0.9c1.6,0,3,0.3,4.4,0.9c1.4,0.6,2.6,1.4,3.6,2.5c1-1,2.2-1.9,3.6-2.5s2.9-0.9,4.4-0.9c1.5,0,2.9,0.3,4.2,0.8
		c1.3,0.6,2.5,1.3,3.5,2.3c1,1,1.8,2.1,2.4,3.4c0.6,1.3,0.9,2.7,1,4.2c0,0,0,0.1,0,0.1c0,0.1,0,0.1,0,0.1v14c0,0.4-0.1,0.9-0.3,1.2
		c-0.2,0.4-0.4,0.7-0.7,1c-0.3,0.3-0.6,0.5-1,0.7c-0.4,0.2-0.8,0.3-1.2,0.3s-0.9-0.1-1.3-0.3c-0.4-0.2-0.8-0.4-1.1-0.7
		c-0.3-0.3-0.5-0.6-0.7-1c-0.2-0.4-0.3-0.8-0.3-1.2V39.7c0-0.6-0.2-1.2-0.4-1.8c-0.3-0.5-0.6-1-1-1.4c-0.4-0.4-0.9-0.7-1.5-0.9
		s-1.1-0.3-1.8-0.3c-0.6,0-1.2,0.1-1.8,0.4c-0.6,0.2-1.1,0.6-1.5,1c-0.4,0.4-0.8,0.9-1,1.4s-0.4,1.1-0.4,1.8v14
		c0,0.9-0.3,1.6-0.9,2.3C68.6,56.7,67.9,57,67,57c-0.4,0-0.9-0.1-1.3-0.3c-0.4-0.2-0.8-0.4-1.1-0.7c-0.3-0.3-0.6-0.6-0.7-1
		c-0.2-0.4-0.3-0.8-0.3-1.2V39.7c0-0.6-0.2-1.2-0.4-1.8c-0.2-0.5-0.6-1-1-1.4c-0.4-0.4-0.9-0.7-1.5-0.9c-0.6-0.2-1.2-0.3-1.8-0.3
		c-0.6,0-1.2,0.1-1.8,0.3c-0.6,0.2-1.1,0.5-1.5,1c-0.4,0.4-0.8,0.9-1,1.4c-0.2,0.5-0.4,1.1-0.4,1.7V53.8z"/>
	<path class="st3" d="M97.6,53.8c0,0.9-0.3,1.6-0.9,2.3c-0.6,0.6-1.4,0.9-2.3,0.9c-0.4,0-0.9-0.1-1.3-0.3c-0.4-0.2-0.8-0.4-1.1-0.7
		c-0.3-0.3-0.6-0.6-0.7-1c-0.2-0.4-0.3-0.8-0.3-1.2V39.7c0-1.5,0.3-2.9,0.9-4.2c0.6-1.3,1.4-2.5,2.4-3.5c1-1,2.2-1.8,3.5-2.3
		c1.3-0.6,2.8-0.9,4.3-0.9c1.6,0,3,0.3,4.4,0.9s2.6,1.4,3.6,2.5c1-1,2.2-1.9,3.6-2.5c1.4-0.6,2.9-0.9,4.4-0.9c1.5,0,2.9,0.3,4.2,0.8
		c1.3,0.6,2.5,1.3,3.5,2.3c1,1,1.8,2.1,2.4,3.4c0.6,1.3,0.9,2.7,1,4.2c0,0,0,0.1,0,0.1c0,0.1,0,0.1,0,0.1v14c0,0.4-0.1,0.9-0.3,1.2
		c-0.2,0.4-0.4,0.7-0.7,1c-0.3,0.3-0.6,0.5-1,0.7c-0.4,0.2-0.8,0.3-1.2,0.3s-0.9-0.1-1.3-0.3c-0.4-0.2-0.8-0.4-1.1-0.7
		c-0.3-0.3-0.5-0.6-0.7-1c-0.2-0.4-0.3-0.8-0.3-1.2V39.7c0-0.6-0.2-1.2-0.4-1.8c-0.3-0.5-0.6-1-1-1.4c-0.4-0.4-0.9-0.7-1.5-0.9
		s-1.1-0.3-1.8-0.3c-0.6,0-1.2,0.1-1.8,0.4c-0.6,0.2-1.1,0.6-1.5,1c-0.4,0.4-0.8,0.9-1,1.4s-0.4,1.1-0.4,1.8v14
		c0,0.9-0.3,1.6-0.9,2.3c-0.6,0.6-1.4,0.9-2.3,0.9c-0.4,0-0.9-0.1-1.3-0.3c-0.4-0.2-0.8-0.4-1.1-0.7c-0.3-0.3-0.6-0.6-0.7-1
		c-0.2-0.4-0.3-0.8-0.3-1.2V39.7c0-0.6-0.2-1.2-0.4-1.8c-0.2-0.5-0.6-1-1-1.4c-0.4-0.4-0.9-0.7-1.5-0.9c-0.6-0.2-1.2-0.3-1.8-0.3
		c-0.6,0-1.2,0.1-1.8,0.3c-0.6,0.2-1.1,0.5-1.5,1c-0.4,0.4-0.8,0.9-1,1.4c-0.2,0.5-0.4,1.1-0.4,1.7V53.8z"/>
	<path class="st4" d="M140.9,53.8c0,0.9-0.3,1.6-0.9,2.3c-0.6,0.6-1.4,0.9-2.3,0.9c-0.4,0-0.9-0.1-1.3-0.3c-0.4-0.2-0.8-0.4-1.1-0.7
		c-0.3-0.3-0.6-0.6-0.7-1c-0.2-0.4-0.3-0.8-0.3-1.2V39.7c0-1.5,0.3-2.9,0.9-4.2c0.6-1.3,1.4-2.5,2.4-3.5c1-1,2.2-1.8,3.5-2.3
		c1.3-0.6,2.8-0.9,4.3-0.9c1.6,0,3,0.3,4.4,0.9c1.4,0.6,2.6,1.4,3.6,2.5c1-1,2.2-1.9,3.6-2.5s2.9-0.9,4.4-0.9c1.5,0,2.9,0.3,4.2,0.8
		c1.3,0.6,2.5,1.3,3.5,2.3s1.8,2.1,2.4,3.4c0.6,1.3,0.9,2.7,1,4.2c0,0,0,0.1,0,0.1c0,0.1,0,0.1,0,0.1v14c0,0.4-0.1,0.9-0.3,1.2
		c-0.2,0.4-0.4,0.7-0.7,1c-0.3,0.3-0.6,0.5-1,0.7c-0.4,0.2-0.8,0.3-1.2,0.3s-0.9-0.1-1.3-0.3c-0.4-0.2-0.8-0.4-1.1-0.7
		c-0.3-0.3-0.5-0.6-0.7-1c-0.2-0.4-0.3-0.8-0.3-1.2V39.7c0-0.6-0.2-1.2-0.4-1.8c-0.3-0.5-0.6-1-1-1.4c-0.4-0.4-0.9-0.7-1.5-0.9
		s-1.1-0.3-1.8-0.3c-0.6,0-1.2,0.1-1.8,0.4c-0.6,0.2-1.1,0.6-1.5,1c-0.4,0.4-0.8,0.9-1,1.4s-0.4,1.1-0.4,1.8v14
		c0,0.9-0.3,1.6-0.9,2.3c-0.6,0.6-1.4,0.9-2.3,0.9c-0.4,0-0.9-0.1-1.3-0.3c-0.4-0.2-0.8-0.4-1.1-0.7c-0.3-0.3-0.6-0.6-0.7-1
		c-0.2-0.4-0.3-0.8-0.3-1.2V39.7c0-0.6-0.2-1.2-0.4-1.8c-0.2-0.5-0.6-1-1-1.4c-0.4-0.4-0.9-0.7-1.5-0.9c-0.6-0.2-1.2-0.3-1.8-0.3
		c-0.6,0-1.2,0.1-1.8,0.3c-0.6,0.2-1.1,0.5-1.5,1c-0.4,0.4-0.8,0.9-1,1.4c-0.2,0.5-0.4,1.1-0.4,1.7V53.8z"/>
</g>
</svg>
