<?xml version="1.0" encoding="utf-8"?>
<!-- Generator: Adobe Illustrator 27.4.0, SVG Export Plug-In . SVG Version: 6.00 Build 0)  -->
<svg version="1.1" id="Capa_1" xmlns="http://www.w3.org/2000/svg" xmlns:xlink="http://www.w3.org/1999/xlink" x="0px" y="0px"
	 viewBox="0 0 300 114" style="enable-background:new 0 0 300 114;" xml:space="preserve">
<style type="text/css">
	.st0{fill:#442316;}
	.st1{fill:#AD824C;}
	.st2{fill:#24555A;}
	.st3{fill:#C4364C;}
	.st4{fill:#1D1D1B;}
</style>
<g>
	<g>
		<path class="st0" d="M100.4,41.4c0.6-0.7,1.1-1.5,1.4-2.3c0.3-0.9,0.4-1.8,0.3-2.7s-0.3-1.8-0.7-2.6c-0.4-0.8-1-1.6-1.7-2.3
			s-1.5-1.2-2.4-1.5s-1.7-0.5-2.6-0.5S93,29.7,92.1,30c-0.9,0.4-1.6,0.9-2.3,1.6l-14.6,16c-0.5,0.5-1,0.9-1.6,1.1
			c-0.6,0.3-1.2,0.4-1.9,0.4c-0.6,0-1.3-0.1-1.9-0.3s-1.2-0.6-1.7-1c-1-0.9-1.5-2.1-1.6-3.4c-0.1-1.3,0.4-2.5,1.3-3.5l14.5-15.7
			c0.7-0.7,1.1-1.5,1.4-2.4s0.4-1.8,0.3-2.7c-0.1-0.9-0.3-1.8-0.7-2.7c-0.4-0.9-1-1.6-1.7-2.3s-1.5-1.2-2.3-1.5s-1.7-0.5-2.6-0.5
			s-1.8,0.2-2.6,0.5c-0.9,0.3-1.6,0.9-2.3,1.6L57.3,31c-0.5,0.5-1,0.9-1.6,1.1c-0.6,0.3-1.2,0.4-1.9,0.4c-0.6,0-1.3-0.1-1.9-0.3
			c-0.6-0.2-1.2-0.6-1.7-1c-0.5-0.5-0.9-1-1.1-1.6c-0.3-0.6-0.4-1.2-0.4-1.8c0-0.6,0.1-1.2,0.3-1.8c0.2-0.6,0.5-1.2,1-1.7L64.5,8.5
			c0,0,0.1-0.1,0.2-0.1s0.1-0.1,0.2-0.1c1.6-1.6,3.4-2.8,5.4-3.7c2-0.8,4.1-1.3,6.2-1.4c2.1-0.1,4.2,0.3,6.3,1
			c2.1,0.7,3.9,1.9,5.7,3.5c1.8,1.6,3.1,3.5,4,5.6s1.5,4.3,1.5,6.5c2.2-0.1,4.4,0.2,6.6,1c2.2,0.7,4.1,1.9,5.9,3.5
			c1.7,1.6,3,3.4,3.9,5.4c0.9,2.1,1.4,4.2,1.6,6.3c0.1,2.2-0.2,4.3-0.9,6.4c-0.7,2.1-1.8,4-3.4,5.7L93.1,64c-0.5,0.5-1,0.9-1.6,1.1
			c-0.6,0.3-1.2,0.4-1.9,0.4c-0.6,0-1.3-0.1-1.9-0.3c-0.6-0.2-1.2-0.6-1.7-1c-1-0.9-1.5-2.1-1.6-3.4c-0.1-1.3,0.4-2.5,1.3-3.5
			L100.4,41.4z"/>
	</g>
	<g>
		<path class="st1" d="M32.4,60c1,0.9,1.5,2.1,1.6,3.4s-0.4,2.5-1.3,3.5c-0.5,0.5-1,0.9-1.6,1.2c-0.6,0.3-1.2,0.4-1.9,0.5
			c-0.6,0.1-1.3,0-1.9-0.2s-1.2-0.5-1.7-1L9.7,52.7c-1.7-1.5-3-3.3-3.9-5.4c-0.9-2-1.4-4.1-1.4-6.3c-0.1-2.2,0.3-4.3,1-6.4
			c0.7-2.1,1.9-4,3.4-5.7c1.6-1.8,3.5-3.1,5.6-4s4.3-1.4,6.5-1.5c-0.1-2.2,0.2-4.5,1-6.6c0.8-2.2,1.9-4.2,3.6-5.9
			c1.6-1.7,3.4-3,5.3-3.9c2-0.9,4.1-1.4,6.2-1.5c2.1-0.1,4.2,0.2,6.3,0.8C45.4,7,47.3,8,49,9.5c0,0,0.1,0.1,0.2,0.1
			c0.1,0,0.1,0.1,0.2,0.1l15.8,14.5c0.5,0.5,0.9,1,1.1,1.6c0.3,0.6,0.4,1.2,0.4,1.8c0,0.6-0.1,1.2-0.3,1.8c-0.2,0.6-0.5,1.2-1,1.6
			c-0.5,0.5-1,0.9-1.6,1.2s-1.2,0.5-1.9,0.5c-0.6,0-1.3,0-1.9-0.2c-0.6-0.2-1.2-0.5-1.7-1l-16-14.6c-0.7-0.6-1.6-1.1-2.4-1.4
			c-0.9-0.3-1.8-0.4-2.6-0.3c-0.9,0.1-1.7,0.3-2.5,0.7s-1.6,0.9-2.2,1.7c-0.7,0.7-1.2,1.5-1.5,2.4s-0.5,1.8-0.5,2.7
			c0,0.9,0.2,1.8,0.6,2.6c0.4,0.9,0.9,1.6,1.6,2.3l16,14.4c1,0.9,1.6,2.1,1.6,3.4c0.1,1.3-0.4,2.5-1.3,3.5c-0.5,0.5-1,0.9-1.6,1.2
			s-1.2,0.4-1.9,0.5c-0.6,0.1-1.3,0-1.9-0.2c-0.6-0.2-1.2-0.5-1.7-1L26.1,34.8c-0.7-0.6-1.6-1.1-2.4-1.4c-0.9-0.3-1.8-0.4-2.6-0.3
			c-0.9,0.1-1.7,0.3-2.5,0.7s-1.6,1-2.2,1.7c-0.7,0.7-1.2,1.5-1.5,2.4s-0.5,1.8-0.5,2.7s0.2,1.8,0.6,2.6c0.3,0.8,0.9,1.6,1.6,2.2
			L32.4,60z"/>
	</g>
	<g>
		<path class="st2" d="M86.1,54.9c-1-0.9-1.6-2.1-1.6-3.4c-0.1-1.3,0.4-2.5,1.3-3.5c0.5-0.5,1-0.9,1.6-1.2s1.2-0.4,1.9-0.5
			c0.6-0.1,1.3,0,1.9,0.2s1.2,0.5,1.7,1l15.9,14.6c1.7,1.5,3,3.3,3.9,5.4c0.9,2,1.4,4.1,1.4,6.3c0.1,2.2-0.3,4.3-1,6.4
			s-1.9,4-3.4,5.7c-1.6,1.8-3.5,3.1-5.6,4s-4.3,1.4-6.5,1.5c0.1,2.2-0.2,4.5-1,6.6s-1.9,4.2-3.6,5.9c-1.6,1.7-3.4,3-5.3,3.9
			c-2,0.9-4.1,1.4-6.2,1.5s-4.2-0.2-6.3-0.8c-2.1-0.7-4-1.7-5.7-3.2c0,0-0.1-0.1-0.2-0.1s-0.1-0.1-0.2-0.1L53.2,90.8
			c-0.5-0.5-0.9-1-1.1-1.6c-0.3-0.6-0.4-1.2-0.4-1.8c0-0.6,0.1-1.2,0.3-1.8c0.2-0.6,0.5-1.2,1-1.6c0.5-0.5,1-0.9,1.6-1.2
			c0.6-0.3,1.2-0.5,1.9-0.5c0.6,0,1.2,0,1.9,0.2c0.6,0.2,1.2,0.5,1.7,1l16,14.6c0.7,0.6,1.6,1.1,2.4,1.4c0.9,0.3,1.8,0.4,2.6,0.3
			c0.9-0.1,1.7-0.3,2.5-0.7c0.8-0.4,1.6-0.9,2.2-1.7c0.7-0.7,1.2-1.5,1.5-2.4s0.5-1.8,0.5-2.7c0-0.9-0.2-1.8-0.6-2.6
			c-0.4-0.9-0.9-1.6-1.6-2.3L69.7,72.9c-1-0.9-1.5-2.1-1.6-3.4s0.4-2.5,1.3-3.5c0.5-0.5,1-0.9,1.6-1.2c0.6-0.3,1.2-0.4,1.9-0.5
			c0.6-0.1,1.3,0,1.9,0.2s1.2,0.5,1.7,1l15.9,14.6c0.7,0.6,1.6,1.1,2.4,1.4c0.9,0.3,1.8,0.4,2.6,0.3c0.9-0.1,1.7-0.3,2.5-0.7
			c0.8-0.4,1.6-1,2.2-1.7c0.7-0.7,1.2-1.5,1.5-2.4s0.5-1.8,0.5-2.7c0-0.9-0.2-1.8-0.6-2.6c-0.3-0.8-0.9-1.6-1.6-2.2L86.1,54.9z"/>
	</g>
	<g>
		<path class="st3" d="M17.7,73c-0.6,0.7-1.1,1.5-1.4,2.3C16,76.2,15.9,77.1,16,78s0.3,1.8,0.7,2.6c0.4,0.8,1,1.6,1.7,2.3
			c0.7,0.7,1.5,1.2,2.4,1.5s1.7,0.5,2.6,0.5s1.7-0.2,2.6-0.5c0.9-0.4,1.6-0.9,2.3-1.6l14.6-15.9c0.5-0.5,1-0.9,1.6-1.1
			c0.6-0.3,1.2-0.4,1.9-0.4c0.6,0,1.3,0.1,1.9,0.3c0.6,0.2,1.2,0.6,1.7,1c1,0.9,1.5,2.1,1.6,3.4s-0.4,2.5-1.3,3.5L35.6,89.3
			c-0.7,0.7-1.1,1.5-1.4,2.4c-0.3,0.9-0.4,1.8-0.3,2.7c0.1,0.9,0.3,1.8,0.7,2.7c0.4,0.9,1,1.6,1.7,2.3c0.7,0.7,1.5,1.2,2.3,1.5
			s1.7,0.5,2.6,0.5c0.9,0,1.8-0.2,2.6-0.5c0.9-0.3,1.6-0.9,2.3-1.6l14.7-15.9c0.5-0.5,1-0.9,1.6-1.1c0.6-0.3,1.2-0.4,1.8-0.4
			c0.6,0,1.3,0.1,1.9,0.3c0.6,0.2,1.2,0.6,1.7,1c0.5,0.5,0.9,1,1.1,1.6c0.3,0.6,0.4,1.2,0.4,1.8c0,0.6-0.1,1.2-0.3,1.8
			c-0.2,0.6-0.5,1.2-1,1.7l-14.6,15.8c0,0-0.1,0.1-0.2,0.1c-0.1,0-0.1,0.1-0.2,0.1c-1.6,1.6-3.4,2.8-5.4,3.7c-2,0.8-4.1,1.3-6.2,1.4
			c-2.1,0.1-4.2-0.3-6.3-1s-3.9-1.9-5.7-3.5c-1.8-1.6-3.1-3.5-4-5.6s-1.5-4.3-1.5-6.5c-2.2,0.1-4.4-0.2-6.6-1
			c-2.2-0.7-4.1-1.9-5.9-3.5c-1.7-1.6-3-3.4-3.9-5.4c-0.9-2.1-1.4-4.2-1.6-6.3c-0.1-2.2,0.2-4.3,0.9-6.4s1.8-4,3.4-5.7L25,50.4
			c0.5-0.5,1-0.9,1.6-1.1c0.6-0.3,1.2-0.4,1.9-0.4c0.6,0,1.3,0.1,1.9,0.3s1.2,0.6,1.7,1c1,0.9,1.5,2.1,1.6,3.4
			c0.1,1.3-0.4,2.5-1.3,3.5L17.7,73z"/>
	</g>
</g>
<g>
	<g>
		<path class="st4" d="M132,75.1H146v-8.8c0-0.3,0.1-0.6,0.2-0.9c0.1-0.3,0.3-0.5,0.5-0.7c0.2-0.2,0.4-0.3,0.7-0.5
			c0.3-0.1,0.6-0.2,0.9-0.2c0.3,0,0.6,0.1,0.9,0.2c0.3,0.1,0.5,0.3,0.7,0.5c0.2,0.2,0.4,0.4,0.5,0.7c0.1,0.3,0.2,0.6,0.2,0.9v22
			c0,0.3-0.1,0.6-0.2,0.9c-0.1,0.3-0.3,0.5-0.5,0.7c-0.2,0.2-0.4,0.3-0.7,0.5c-0.3,0.1-0.6,0.2-0.9,0.2c-0.3,0-0.6-0.1-0.9-0.2
			c-0.3-0.1-0.5-0.3-0.7-0.5c-0.2-0.2-0.4-0.4-0.5-0.7c-0.1-0.3-0.2-0.6-0.2-0.9v-8.7H132v8.7c0,0.3-0.1,0.6-0.2,0.9
			c-0.1,0.3-0.3,0.5-0.5,0.7c-0.2,0.2-0.4,0.3-0.7,0.5c-0.3,0.1-0.6,0.2-0.9,0.2c-0.3,0-0.6-0.1-0.9-0.2c-0.3-0.1-0.5-0.3-0.7-0.5
			c-0.2-0.2-0.4-0.4-0.5-0.7c-0.1-0.3-0.2-0.6-0.2-0.9v-22c0-0.3,0.1-0.6,0.2-0.9c0.1-0.3,0.3-0.5,0.5-0.7c0.2-0.2,0.4-0.3,0.7-0.5
			c0.3-0.1,0.6-0.2,0.9-0.2c0.3,0,0.6,0.1,0.9,0.2c0.3,0.1,0.5,0.3,0.7,0.5c0.2,0.2,0.4,0.4,0.5,0.7c0.1,0.3,0.2,0.6,0.2,0.9V75.1z"
			/>
		<path class="st4" d="M157.5,90.5c-0.6-0.1-1.1-0.3-1.5-0.7c-0.4-0.4-0.6-0.9-0.6-1.5V66.4c0-0.3,0.1-0.6,0.2-0.9
			c0.1-0.3,0.3-0.5,0.5-0.7c0.2-0.2,0.4-0.4,0.7-0.5c0.3-0.1,0.6-0.2,0.9-0.2h14.4c0.3,0,0.6,0.1,0.9,0.2c0.3,0.1,0.5,0.3,0.7,0.5
			c0.2,0.2,0.3,0.4,0.5,0.7c0.1,0.3,0.2,0.6,0.2,0.9c0,0.3-0.1,0.6-0.2,0.9c-0.1,0.3-0.3,0.5-0.5,0.7s-0.4,0.4-0.7,0.5
			c-0.3,0.1-0.6,0.2-0.9,0.2h-12.2v6.1h9.6c0.3,0,0.6,0.1,0.9,0.2c0.3,0.1,0.5,0.3,0.7,0.5c0.2,0.2,0.4,0.4,0.5,0.7
			c0.1,0.3,0.2,0.6,0.2,0.9c0,0.3-0.1,0.6-0.2,0.9s-0.3,0.5-0.5,0.7c-0.2,0.2-0.4,0.4-0.7,0.5c-0.3,0.1-0.6,0.2-0.9,0.2h-9.6v6.9
			h12.2c0.3,0,0.6,0.1,0.9,0.2c0.3,0.1,0.5,0.3,0.7,0.5c0.2,0.2,0.3,0.4,0.5,0.7c0.1,0.3,0.2,0.6,0.2,0.9c0,0.6-0.2,1.2-0.6,1.6
			c-0.4,0.4-0.9,0.6-1.6,0.6H157.5z"/>
		<path class="st4" d="M182.5,86.1l11.4,0c0.3,0,0.6,0.1,0.9,0.2c0.3,0.1,0.5,0.3,0.7,0.5c0.2,0.2,0.4,0.4,0.5,0.7
			c0.1,0.3,0.2,0.6,0.2,0.9c0,0.6-0.2,1.2-0.6,1.6s-1,0.6-1.6,0.6h-13.7c-0.1,0-0.2,0-0.2,0c-0.1,0-0.1,0-0.2,0c-0.1,0-0.1,0-0.2,0
			c-0.5-0.1-0.9-0.4-1.2-0.8c-0.3-0.4-0.5-0.8-0.5-1.4v-22c0-0.3,0.1-0.6,0.2-0.9c0.1-0.3,0.3-0.5,0.5-0.7c0.2-0.2,0.4-0.3,0.7-0.5
			c0.3-0.1,0.6-0.2,0.9-0.2c0.3,0,0.6,0.1,0.9,0.2c0.3,0.1,0.5,0.3,0.7,0.5c0.2,0.2,0.4,0.4,0.5,0.7c0.1,0.3,0.2,0.6,0.2,0.9V86.1z"
			/>
		<path class="st4" d="M214.8,85.5H203l-1.5,3.7c-0.2,0.4-0.5,0.8-0.8,1c-0.4,0.2-0.8,0.3-1.2,0.3c-0.3,0-0.6-0.1-1-0.2
			c-0.3-0.1-0.6-0.3-0.7-0.5c-0.2-0.2-0.3-0.4-0.4-0.7c-0.1-0.3-0.1-0.5-0.1-0.8c0-0.3,0.1-0.6,0.2-0.9l9.4-21.9
			c0.2-0.4,0.5-0.8,0.8-1c0.4-0.2,0.8-0.4,1.2-0.4c0.4,0,0.8,0.1,1.2,0.4c0.4,0.2,0.6,0.6,0.8,1l9.5,21.9c0.2,0.6,0.3,1.1,0.1,1.7
			c-0.2,0.6-0.5,1-1.1,1.2c-0.3,0.1-0.6,0.2-0.9,0.2c-0.4,0-0.8-0.1-1.2-0.4c-0.4-0.2-0.7-0.6-0.8-1L214.8,85.5z M204.8,81h8.1
			l-4-9.7L204.8,81z"/>
		<path class="st4" d="M225.5,90.5c-0.3,0-0.6-0.1-0.9-0.2c-0.3-0.1-0.5-0.3-0.7-0.5c-0.2-0.2-0.4-0.4-0.5-0.7
			c-0.1-0.3-0.2-0.6-0.2-0.9v-22c0-0.3,0.1-0.6,0.2-0.9c0.1-0.3,0.3-0.5,0.5-0.7c0.2-0.2,0.4-0.4,0.7-0.5c0.3-0.1,0.6-0.2,0.9-0.2
			h7.2c1.2,0,2.4,0.2,3.5,0.5s2.2,0.8,3.2,1.3c1,0.6,1.9,1.3,2.7,2.1c0.8,0.8,1.5,1.7,2.1,2.7c0.6,1,1,2,1.4,3.2
			c0.3,1.1,0.5,2.3,0.5,3.5c0,1.8-0.4,3.5-1.1,5.1c-0.7,1.6-1.7,3-2.9,4.2c-1.2,1.2-2.6,2.1-4.3,2.8c-1.6,0.7-3.3,1-5.2,1H225.5
			L225.5,90.5z M227.7,68.6v17.5h5.1c1.2,0,2.4-0.2,3.4-0.7c1.1-0.5,2-1.1,2.8-1.9c0.8-0.8,1.4-1.7,1.9-2.8c0.5-1,0.7-2.1,0.7-3.3
			c0-1.2-0.2-2.3-0.7-3.3c-0.5-1.1-1.1-2-1.9-2.8c-0.8-0.8-1.7-1.5-2.8-1.9c-1.1-0.5-2.2-0.7-3.4-0.7H227.7z"/>
		<path class="st4" d="M261.8,63.9c1.9,0,3.6,0.4,5.2,1.1c1.6,0.7,3.1,1.7,4.3,2.9c1.2,1.2,2.2,2.6,2.9,4.3c0.7,1.6,1.1,3.4,1.1,5.2
			c0,1.2-0.2,2.4-0.5,3.6c-0.3,1.1-0.8,2.2-1.4,3.2c-0.6,1-1.3,1.9-2.1,2.7c-0.8,0.8-1.7,1.5-2.7,2.1s-2.1,1-3.2,1.4
			c-1.1,0.3-2.3,0.5-3.6,0.5c-1.9,0-3.6-0.4-5.2-1.1c-1.6-0.7-3-1.7-4.2-2.9c-1.2-1.2-2.2-2.6-2.8-4.3c-0.7-1.6-1-3.4-1-5.2
			c0-1.2,0.2-2.4,0.5-3.6c0.3-1.1,0.8-2.2,1.3-3.2c0.6-1,1.3-1.9,2.1-2.7c0.8-0.8,1.7-1.5,2.7-2.1c1-0.6,2.1-1,3.2-1.4
			C259.4,64.1,260.6,63.9,261.8,63.9z M261.9,68.4c-1.2,0-2.4,0.2-3.5,0.7c-1.1,0.5-2,1.1-2.8,1.9c-0.8,0.8-1.4,1.8-1.9,2.8
			c-0.5,1.1-0.7,2.2-0.7,3.5c0,1.3,0.2,2.4,0.7,3.5c0.5,1.1,1.1,2,1.9,2.8c0.8,0.8,1.7,1.4,2.8,1.9c1.1,0.5,2.2,0.7,3.5,0.7
			c1.2,0,2.4-0.2,3.5-0.7s2-1.1,2.8-1.9s1.4-1.8,1.9-2.8c0.5-1.1,0.7-2.3,0.7-3.5c0-1.2-0.2-2.4-0.7-3.5c-0.5-1.1-1.1-2-1.9-2.8
			c-0.8-0.8-1.8-1.5-2.8-1.9C264.3,68.6,263.1,68.4,261.9,68.4z"/>
		<path class="st4" d="M287.1,79.5c-1.3-0.2-2.5-0.6-3.6-1c-1.1-0.4-2-0.9-2.8-1.6c-0.8-0.6-1.4-1.4-1.9-2.2c-0.4-0.9-0.7-1.9-0.7-3
			c0-1.2,0.2-2.2,0.7-3.2c0.5-0.9,1.1-1.8,1.9-2.5c0.8-0.7,1.7-1.2,2.8-1.6c1.1-0.4,2.2-0.6,3.3-0.6c0.8,0,1.6,0.1,2.4,0.2
			c0.8,0.2,1.5,0.4,2.2,0.7s1.3,0.7,1.9,1.2c0.6,0.5,1.1,1,1.4,1.7c0.1,0.2,0.2,0.4,0.2,0.6c0,0.2,0,0.4,0,0.6
			c0,0.2-0.1,0.4-0.2,0.6s-0.2,0.3-0.4,0.5c-0.4,0.4-0.9,0.6-1.5,0.6c-0.2,0-0.4,0-0.7-0.1c-0.2-0.1-0.4-0.2-0.6-0.3
			c-0.4-0.3-0.7-0.6-1.1-0.8c-0.3-0.2-0.7-0.4-1-0.6c-0.4-0.2-0.7-0.3-1.2-0.3c-0.4-0.1-0.9-0.1-1.5-0.1c-0.6,0-1.2,0.1-1.7,0.2
			s-1,0.4-1.4,0.7c-0.4,0.3-0.7,0.6-0.9,1c-0.2,0.4-0.3,0.8-0.3,1.3c0,0.6,0.2,1.1,0.5,1.4c0.3,0.4,0.7,0.7,1.3,0.9
			c0.5,0.3,1.2,0.5,1.9,0.6c0.7,0.2,1.5,0.3,2.3,0.5c1,0.2,1.9,0.6,2.8,0.9c0.9,0.4,1.7,0.8,2.4,1.4s1.3,1.3,1.7,2.1
			c0.4,0.8,0.7,1.8,0.7,3s-0.2,2.2-0.7,3.2c-0.5,1-1.1,1.9-2,2.6c-0.8,0.7-1.8,1.3-3,1.7c-1.1,0.4-2.4,0.6-3.7,0.6c-1,0-2-0.1-3-0.4
			c-0.9-0.3-1.8-0.6-2.6-1.1c-0.8-0.5-1.5-1-2.1-1.6c-0.6-0.6-1.1-1.3-1.4-2c-0.2-0.4-0.3-0.7-0.3-1c0-0.3,0-0.6,0.1-0.9
			c0.1-0.3,0.2-0.5,0.4-0.7c0.2-0.2,0.4-0.4,0.6-0.5c0.4-0.2,0.7-0.3,1-0.3c0.7,0,1.4,0.4,2.1,1.3c0.6,0.8,1.3,1.5,2.2,1.9
			c0.9,0.5,1.9,0.7,3.1,0.7c0.6,0,1.1-0.1,1.7-0.2c0.6-0.2,1.1-0.4,1.5-0.7c0.4-0.3,0.8-0.7,1.1-1.1c0.3-0.4,0.4-0.9,0.4-1.5
			c0-0.6-0.1-1.1-0.4-1.5c-0.3-0.4-0.6-0.7-1.1-0.9c-0.4-0.2-0.9-0.4-1.5-0.6C288.1,79.8,287.6,79.6,287.1,79.5z"/>
	</g>
	<path class="st1" d="M132,53.6c0,0.9-0.3,1.6-0.9,2.3c-0.6,0.6-1.4,0.9-2.3,0.9c-0.4,0-0.9-0.1-1.3-0.3c-0.4-0.2-0.8-0.4-1.1-0.7
		c-0.3-0.3-0.6-0.6-0.7-1c-0.2-0.4-0.3-0.8-0.3-1.2V39.5c0-1.5,0.3-2.9,0.9-4.2c0.6-1.3,1.4-2.5,2.4-3.5c1-1,2.2-1.8,3.5-2.3
		c1.3-0.6,2.8-0.9,4.3-0.9c1.6,0,3,0.3,4.4,0.9c1.4,0.6,2.6,1.4,3.6,2.5c1-1,2.2-1.9,3.6-2.5c1.4-0.6,2.9-0.9,4.4-0.9
		c1.5,0,2.9,0.3,4.2,0.8c1.3,0.6,2.5,1.3,3.5,2.3s1.8,2.1,2.4,3.4s0.9,2.7,1,4.2c0,0,0,0.1,0,0.1c0,0.1,0,0.1,0,0.1v14
		c0,0.4-0.1,0.9-0.3,1.2c-0.2,0.4-0.4,0.7-0.7,1c-0.3,0.3-0.6,0.5-1,0.7c-0.4,0.2-0.8,0.3-1.2,0.3c-0.4,0-0.9-0.1-1.3-0.3
		c-0.4-0.2-0.8-0.4-1.1-0.7c-0.3-0.3-0.5-0.6-0.7-1c-0.2-0.4-0.3-0.8-0.3-1.2V39.5c0-0.6-0.2-1.2-0.4-1.8c-0.3-0.5-0.6-1-1-1.4
		c-0.4-0.4-0.9-0.7-1.5-0.9c-0.5-0.2-1.1-0.3-1.8-0.3c-0.6,0-1.2,0.1-1.8,0.4c-0.6,0.2-1.1,0.6-1.5,1c-0.4,0.4-0.8,0.9-1,1.4
		s-0.4,1.1-0.4,1.8v14c0,0.9-0.3,1.6-0.9,2.3c-0.6,0.6-1.4,0.9-2.3,0.9c-0.4,0-0.9-0.1-1.3-0.3c-0.4-0.2-0.8-0.4-1.1-0.7
		c-0.3-0.3-0.6-0.6-0.7-1c-0.2-0.4-0.3-0.8-0.3-1.2V39.5c0-0.6-0.2-1.2-0.4-1.8c-0.2-0.5-0.6-1-1-1.4c-0.4-0.4-0.9-0.7-1.5-0.9
		c-0.6-0.2-1.2-0.3-1.8-0.3c-0.6,0-1.2,0.1-1.8,0.3c-0.6,0.2-1.1,0.5-1.5,1c-0.4,0.4-0.8,0.9-1,1.4c-0.2,0.5-0.4,1.1-0.4,1.7V53.6z"
		/>
	<path class="st0" d="M175.3,53.6c0,0.9-0.3,1.6-0.9,2.3c-0.6,0.6-1.4,0.9-2.3,0.9c-0.4,0-0.9-0.1-1.3-0.3c-0.4-0.2-0.8-0.4-1.1-0.7
		c-0.3-0.3-0.6-0.6-0.7-1c-0.2-0.4-0.3-0.8-0.3-1.2V39.5c0-1.5,0.3-2.9,0.9-4.2c0.6-1.3,1.4-2.5,2.4-3.5c1-1,2.2-1.8,3.5-2.3
		c1.3-0.6,2.8-0.9,4.3-0.9c1.6,0,3,0.3,4.4,0.9c1.4,0.6,2.6,1.4,3.6,2.5c1-1,2.2-1.9,3.6-2.5c1.4-0.6,2.9-0.9,4.4-0.9
		c1.5,0,2.9,0.3,4.2,0.8c1.3,0.6,2.5,1.3,3.5,2.3s1.8,2.1,2.4,3.4s0.9,2.7,1,4.2c0,0,0,0.1,0,0.1c0,0.1,0,0.1,0,0.1v14
		c0,0.4-0.1,0.9-0.3,1.2c-0.2,0.4-0.4,0.7-0.7,1c-0.3,0.3-0.6,0.5-1,0.7c-0.4,0.2-0.8,0.3-1.2,0.3s-0.9-0.1-1.3-0.3
		c-0.4-0.2-0.8-0.4-1.1-0.7c-0.3-0.3-0.5-0.6-0.7-1c-0.2-0.4-0.3-0.8-0.3-1.2V39.5c0-0.6-0.2-1.2-0.4-1.8c-0.3-0.5-0.6-1-1-1.4
		c-0.4-0.4-0.9-0.7-1.5-0.9s-1.1-0.3-1.8-0.3c-0.6,0-1.2,0.1-1.8,0.4c-0.6,0.2-1.1,0.6-1.5,1c-0.4,0.4-0.8,0.9-1,1.4
		s-0.4,1.1-0.4,1.8v14c0,0.9-0.3,1.6-0.9,2.3c-0.6,0.6-1.4,0.9-2.3,0.9c-0.4,0-0.9-0.1-1.3-0.3c-0.4-0.2-0.8-0.4-1.1-0.7
		c-0.3-0.3-0.6-0.6-0.7-1c-0.2-0.4-0.3-0.8-0.3-1.2V39.5c0-0.6-0.2-1.2-0.4-1.8c-0.2-0.5-0.6-1-1-1.4c-0.4-0.4-0.9-0.7-1.5-0.9
		c-0.6-0.2-1.2-0.3-1.8-0.3c-0.6,0-1.2,0.1-1.8,0.3c-0.6,0.2-1.1,0.5-1.5,1c-0.4,0.4-0.8,0.9-1,1.4c-0.2,0.5-0.4,1.1-0.4,1.7V53.6z"
		/>
	<path class="st2" d="M218.6,53.6c0,0.9-0.3,1.6-0.9,2.3c-0.6,0.6-1.4,0.9-2.3,0.9c-0.4,0-0.9-0.1-1.3-0.3c-0.4-0.2-0.8-0.4-1.1-0.7
		c-0.3-0.3-0.6-0.6-0.7-1c-0.2-0.4-0.3-0.8-0.3-1.2V39.5c0-1.5,0.3-2.9,0.9-4.2c0.6-1.3,1.4-2.5,2.4-3.5c1-1,2.2-1.8,3.5-2.3
		c1.3-0.6,2.8-0.9,4.3-0.9c1.6,0,3,0.3,4.4,0.9c1.4,0.6,2.6,1.4,3.6,2.5c1-1,2.2-1.9,3.6-2.5c1.4-0.6,2.9-0.9,4.4-0.9
		c1.5,0,2.9,0.3,4.2,0.8c1.3,0.6,2.5,1.3,3.5,2.3s1.8,2.1,2.4,3.4s0.9,2.7,1,4.2c0,0,0,0.1,0,0.1c0,0.1,0,0.1,0,0.1v14
		c0,0.4-0.1,0.9-0.3,1.2c-0.2,0.4-0.4,0.7-0.7,1c-0.3,0.3-0.6,0.5-1,0.7c-0.4,0.2-0.8,0.3-1.2,0.3s-0.9-0.1-1.3-0.3
		c-0.4-0.2-0.8-0.4-1.1-0.7c-0.3-0.3-0.5-0.6-0.7-1c-0.2-0.4-0.3-0.8-0.3-1.2V39.5c0-0.6-0.2-1.2-0.4-1.8c-0.3-0.5-0.6-1-1-1.4
		c-0.4-0.4-0.9-0.7-1.5-0.9c-0.5-0.2-1.1-0.3-1.8-0.3c-0.6,0-1.2,0.1-1.8,0.4c-0.6,0.2-1.1,0.6-1.5,1c-0.4,0.4-0.8,0.9-1,1.4
		s-0.4,1.1-0.4,1.8v14c0,0.9-0.3,1.6-0.9,2.3c-0.6,0.6-1.4,0.9-2.3,0.9c-0.4,0-0.9-0.1-1.3-0.3c-0.4-0.2-0.8-0.4-1.1-0.7
		c-0.3-0.3-0.6-0.6-0.7-1c-0.2-0.4-0.3-0.8-0.3-1.2V39.5c0-0.6-0.2-1.2-0.4-1.8c-0.2-0.5-0.6-1-1-1.4c-0.4-0.4-0.9-0.7-1.5-0.9
		c-0.6-0.2-1.2-0.3-1.8-0.3c-0.6,0-1.2,0.1-1.8,0.3c-0.6,0.2-1.1,0.5-1.5,1c-0.4,0.4-0.8,0.9-1,1.4c-0.2,0.5-0.4,1.1-0.4,1.7V53.6z"
		/>
	<path class="st3" d="M261.9,53.6c0,0.9-0.3,1.6-0.9,2.3c-0.6,0.6-1.4,0.9-2.3,0.9c-0.4,0-0.9-0.1-1.3-0.3c-0.4-0.2-0.8-0.4-1.1-0.7
		c-0.3-0.3-0.6-0.6-0.7-1c-0.2-0.4-0.3-0.8-0.3-1.2V39.5c0-1.5,0.3-2.9,0.9-4.2c0.6-1.3,1.4-2.5,2.4-3.5c1-1,2.2-1.8,3.5-2.3
		c1.3-0.6,2.8-0.9,4.3-0.9c1.6,0,3,0.3,4.4,0.9c1.4,0.6,2.6,1.4,3.6,2.5c1-1,2.2-1.9,3.6-2.5c1.4-0.6,2.9-0.9,4.4-0.9
		c1.5,0,2.9,0.3,4.2,0.8c1.3,0.6,2.5,1.3,3.5,2.3c1,1,1.8,2.1,2.4,3.4c0.6,1.3,0.9,2.7,1,4.2c0,0,0,0.1,0,0.1c0,0.1,0,0.1,0,0.1v14
		c0,0.4-0.1,0.9-0.3,1.2c-0.2,0.4-0.4,0.7-0.7,1c-0.3,0.3-0.6,0.5-1,0.7c-0.4,0.2-0.8,0.3-1.2,0.3s-0.9-0.1-1.3-0.3
		c-0.4-0.2-0.8-0.4-1.1-0.7c-0.3-0.3-0.5-0.6-0.7-1c-0.2-0.4-0.3-0.8-0.3-1.2V39.5c0-0.6-0.2-1.2-0.4-1.8c-0.3-0.5-0.6-1-1-1.4
		c-0.4-0.4-0.9-0.7-1.5-0.9s-1.1-0.3-1.8-0.3c-0.6,0-1.2,0.1-1.8,0.4c-0.6,0.2-1.1,0.6-1.5,1c-0.4,0.4-0.8,0.9-1,1.4
		c-0.2,0.5-0.4,1.1-0.4,1.8v14c0,0.9-0.3,1.6-0.9,2.3c-0.6,0.6-1.4,0.9-2.3,0.9c-0.4,0-0.9-0.1-1.3-0.3c-0.4-0.2-0.8-0.4-1.1-0.7
		c-0.3-0.3-0.6-0.6-0.7-1c-0.2-0.4-0.3-0.8-0.3-1.2V39.5c0-0.6-0.2-1.2-0.4-1.8c-0.2-0.5-0.6-1-1-1.4c-0.4-0.4-0.9-0.7-1.5-0.9
		c-0.6-0.2-1.2-0.3-1.8-0.3c-0.6,0-1.2,0.1-1.8,0.3c-0.6,0.2-1.1,0.5-1.5,1c-0.4,0.4-0.8,0.9-1,1.4c-0.2,0.5-0.4,1.1-0.4,1.7V53.6z"
		/>
</g>
</svg>
